<svg version="1.1" id="Layer_1" xmlns="http://www.w3.org/2000/svg" xmlns:xlink="http://www.w3.org/1999/xlink" x="0px" y="0px"
	 width="100%" viewBox="0 0 512 512" enable-background="new 0 0 512 512" xml:space="preserve">
<path fill="#35373B" opacity="1.000000" stroke="none" 
	d="
M235.000000,1.000000 
	C249.354233,1.000000 263.708466,1.000000 278.707458,1.393765 
	C291.751007,3.601723 304.333527,4.614534 316.508240,7.405860 
	C338.269928,12.395217 358.981201,20.467564 378.663513,31.180935 
	C405.964233,46.041103 429.718842,65.141510 450.196960,88.553307 
	C466.463013,107.149582 479.711121,127.537270 490.043762,149.948990 
	C500.825378,173.334595 508.167786,197.641159 511.039917,223.270538 
	C511.480743,227.204163 512.336304,231.091339 513.000000,235.000000 
	C513.000000,249.354233 513.000000,263.708466 512.606201,278.707458 
	C510.398254,291.751007 509.385468,304.333527 506.594147,316.508240 
	C501.604797,338.269928 493.532471,358.981201 482.819122,378.663513 
	C467.958923,405.964233 448.858521,429.718842 425.446686,450.196930 
	C406.850403,466.462952 386.462677,479.710999 364.050964,490.043671 
	C340.665375,500.825348 316.358826,508.167725 290.729462,511.039917 
	C286.795837,511.480713 282.908661,512.336304 279.000000,513.000000 
	C264.645782,513.000000 250.291550,513.000000 235.292542,512.606201 
	C222.249008,510.398285 209.666519,509.385529 197.491821,506.594177 
	C175.730118,501.604797 155.018845,493.532501 135.336533,482.819092 
	C108.035843,467.958923 84.281242,448.858521 63.803123,425.446747 
	C47.537079,406.850433 34.288940,386.462738 23.956278,364.050995 
	C13.174617,340.665436 5.832316,316.358856 2.960105,290.729492 
	C2.519274,286.795868 1.663739,282.908661 1.000000,279.000000 
	C1.000000,264.645782 1.000000,250.291550 1.393767,235.292542 
	C3.601737,222.248978 4.614561,209.666473 7.405883,197.491730 
	C12.395217,175.729996 20.467590,155.018753 31.180958,135.336441 
	C46.041130,108.035744 65.141541,84.281158 88.553329,63.803043 
	C107.149612,47.537022 127.537315,34.288925 149.949036,23.956261 
	C173.334610,13.174601 197.641190,5.832339 223.270538,2.960109 
	C227.204178,2.519272 231.091339,1.663740 235.000000,1.000000 
M300.840118,213.320160 
	C284.055969,197.599930 264.383545,191.496933 241.985672,197.180817 
	C218.796143,203.065582 203.466309,218.105484 197.407486,241.183563 
	C191.428696,263.956757 197.044281,284.264282 214.257874,301.679016 
	C230.969070,316.913513 250.472626,322.460632 272.345917,316.790741 
	C295.225922,310.859924 310.415253,295.899811 316.570099,273.144135 
	C322.601105,250.846451 317.325500,230.783646 300.840118,213.320160 
M24.319666,185.111053 
	C24.162107,185.739502 24.004547,186.367950 23.355318,187.528992 
	C17.308687,208.032242 13.872046,228.930771 13.492023,250.648087 
	C70.099319,250.648087 126.357391,250.648087 182.610168,250.648087 
	C190.623093,209.223267 214.421783,183.391052 257.482056,183.600494 
	C300.061432,183.807571 323.494232,209.668594 331.440460,250.644455 
	C387.662140,250.644455 443.914551,250.644455 500.797791,250.644455 
	C500.183594,242.883499 500.246277,235.345474 498.873810,228.078506 
	C496.072937,213.248276 492.499420,198.563980 489.142303,183.059326 
	C489.076569,182.732605 489.043091,182.395386 488.940582,182.080643 
	C452.018402,68.734215 338.321320,-3.693875 218.239899,16.510853 
	C133.426682,30.781408 72.628281,78.690758 35.279846,156.080109 
	C30.853697,165.251511 28.317274,175.334915 24.973364,184.988037 
	C24.973364,184.988037 24.947535,184.924164 24.319666,185.111053 
M489.726959,329.726135 
	C496.269135,308.156952 500.116302,286.155273 500.553253,263.304321 
	C443.957367,263.304321 387.571350,263.304321 332.103607,263.304321 
	C328.905579,273.084442 325.822510,282.513062 322.170593,292.278534 
	C321.641357,293.123657 321.099976,293.961456 320.584686,294.814972 
	C297.557617,332.954376 247.718475,342.565918 212.138748,315.817535 
	C203.187027,309.087769 196.771744,300.283234 190.709167,290.319244 
	C187.832962,281.374146 184.956741,272.429016 182.050552,263.390686 
	C126.242844,263.390686 69.870949,263.390686 13.169411,263.390686 
	C13.797834,271.225128 13.743275,278.806854 15.131370,286.114532 
	C17.942120,300.911835 21.534729,315.560547 24.865202,331.020966 
	C35.369587,364.388397 52.092468,394.371277 75.969406,419.850006 
	C137.706100,485.728424 213.628281,512.166687 302.515472,496.202881 
	C371.382111,483.834717 424.490021,446.030090 462.709564,387.527740 
	C474.300446,369.785645 483.367310,350.736115 489.726959,329.726135 
z"/>
<path fill="#FFFFFF" opacity="1.000000" stroke="none" 
	d="
M234.531342,1.000000 
	C231.091339,1.663740 227.204178,2.519272 223.270538,2.960109 
	C197.641190,5.832339 173.334610,13.174601 149.949036,23.956261 
	C127.537315,34.288925 107.149612,47.537022 88.553329,63.803043 
	C65.141541,84.281158 46.041130,108.035744 31.180958,135.336441 
	C20.467590,155.018753 12.395217,175.729996 7.405883,197.491730 
	C4.614561,209.666473 3.601737,222.248978 1.393767,234.823883 
	C1.000000,157.072952 1.000000,79.145912 1.000000,1.000000 
	C78.687424,1.000000 156.375061,1.000000 234.531342,1.000000 
z"/>
<path fill="#FFFFFF" opacity="1.000000" stroke="none" 
	d="
M279.468658,513.000000 
	C282.908661,512.336304 286.795837,511.480713 290.729462,511.039917 
	C316.358826,508.167725 340.665375,500.825348 364.050964,490.043671 
	C386.462677,479.710999 406.850403,466.462952 425.446686,450.196930 
	C448.858521,429.718842 467.958923,405.964233 482.819122,378.663513 
	C493.532471,358.981201 501.604797,338.269928 506.594147,316.508240 
	C509.385468,304.333527 510.398254,291.751007 512.606201,279.176147 
	C513.000000,356.927032 513.000000,434.854095 513.000000,513.000000 
	C435.312561,513.000000 357.624939,513.000000 279.468658,513.000000 
z"/>
<path fill="#FFFFFF" opacity="1.000000" stroke="none" 
	d="
M1.000000,279.468658 
	C1.663739,282.908661 2.519274,286.795868 2.960105,290.729492 
	C5.832316,316.358856 13.174617,340.665436 23.956278,364.050995 
	C34.288940,386.462738 47.537079,406.850433 63.803123,425.446747 
	C84.281242,448.858521 108.035843,467.958923 135.336533,482.819092 
	C155.018845,493.532501 175.730118,501.604797 197.491821,506.594177 
	C209.666519,509.385529 222.249008,510.398285 234.823883,512.606201 
	C157.072968,513.000000 79.145927,513.000000 1.000000,513.000000 
	C1.000000,435.312561 1.000000,357.624939 1.000000,279.468658 
z"/>
<path fill="#FFFFFF" opacity="1.000000" stroke="none" 
	d="
M513.000000,234.531342 
	C512.336304,231.091339 511.480743,227.204163 511.039917,223.270538 
	C508.167786,197.641159 500.825378,173.334595 490.043762,149.948990 
	C479.711121,127.537270 466.463013,107.149582 450.196960,88.553307 
	C429.718842,65.141510 405.964233,46.041103 378.663513,31.180935 
	C358.981201,20.467564 338.269928,12.395217 316.508240,7.405860 
	C304.333527,4.614534 291.751007,3.601723 279.176147,1.393765 
	C356.927032,1.000000 434.854095,1.000000 513.000000,1.000000 
	C513.000000,78.687424 513.000000,156.375061 513.000000,234.531342 
z"/>
<path fill="#D60909" opacity="1.000000" stroke="none" 
	d="
M489.244171,183.819565 
	C492.499420,198.563980 496.072937,213.248276 498.873810,228.078506 
	C500.246277,235.345474 500.183594,242.883499 500.797791,250.644455 
	C443.914551,250.644455 387.662140,250.644455 331.440460,250.644455 
	C323.494232,209.668594 300.061432,183.807571 257.482056,183.600494 
	C214.421783,183.391052 190.623093,209.223267 182.610168,250.648087 
	C126.357391,250.648087 70.099319,250.648087 13.492023,250.648087 
	C13.872046,228.930771 17.308687,208.032242 23.835535,187.066177 
	C24.526346,186.043625 24.736938,185.483902 24.947533,184.924164 
	C24.947535,184.924164 24.973364,184.988037 25.200912,184.774338 
	C37.131046,163.563416 52.265305,145.486603 70.537491,129.810379 
	C91.097275,112.171570 114.081055,98.617737 138.933075,88.307587 
	C169.565903,75.599167 201.721603,68.388222 234.730988,66.284622 
	C260.112549,64.667137 285.596008,65.598160 310.786865,70.047287 
	C333.466309,74.052879 355.607574,80.108971 376.819183,89.052589 
	C399.912140,98.789490 421.477875,111.268311 440.736176,127.480698 
	C458.161682,142.150177 473.609863,158.519028 484.872101,178.533264 
	C485.975677,180.494446 487.770325,182.066742 489.244171,183.819565 
z"/>
<path fill="#D8E5EA" opacity="1.000000" stroke="none" 
	d="
M322.739441,291.941681 
	C325.822510,282.513062 328.905579,273.084442 332.103607,263.304321 
	C387.571350,263.304321 443.957367,263.304321 500.553253,263.304321 
	C500.116302,286.155273 496.269135,308.156952 489.237366,329.877502 
	C488.134430,330.723267 487.460022,331.373199 486.916931,332.118866 
	C478.514709,343.655548 471.039154,356.021515 461.554382,366.583893 
	C440.623627,389.892761 414.978363,406.958069 386.643799,420.333252 
	C351.679077,436.838165 314.721741,445.240143 276.478882,447.773285 
	C246.177155,449.780426 215.933594,447.419159 186.275665,440.492310 
	C145.415634,430.949127 107.749557,414.525848 74.963898,387.733307 
	C56.617371,372.740479 40.719151,355.749664 28.923847,335.078827 
	C27.896660,333.278748 26.193930,331.864166 24.804974,330.270538 
	C21.534729,315.560547 17.942120,300.911835 15.131370,286.114532 
	C13.743275,278.806854 13.797834,271.225128 13.169411,263.390686 
	C69.870949,263.390686 126.242844,263.390686 182.050552,263.390686 
	C184.956741,272.429016 187.832962,281.374146 190.553162,290.951965 
	C192.267075,306.408783 199.158752,318.877380 209.788940,328.896637 
	C226.114365,344.283844 245.647507,350.345215 268.116791,347.066742 
	C294.051849,343.282562 317.786377,321.317139 323.022522,295.552948 
	C323.253693,294.415375 322.848297,293.148376 322.739441,291.941681 
z"/>
<path fill="#FEFEFE" opacity="1.000000" stroke="none" 
	d="
M24.835091,330.645752 
	C26.193930,331.864166 27.896660,333.278748 28.923847,335.078827 
	C40.719151,355.749664 56.617371,372.740479 74.963898,387.733307 
	C107.749557,414.525848 145.415634,430.949127 186.275665,440.492310 
	C215.933594,447.419159 246.177155,449.780426 276.478882,447.773285 
	C314.721741,445.240143 351.679077,436.838165 386.643799,420.333252 
	C414.978363,406.958069 440.623627,389.892761 461.554382,366.583893 
	C471.039154,356.021515 478.514709,343.655548 486.916931,332.118866 
	C487.460022,331.373199 488.134430,330.723267 488.973358,330.144653 
	C483.367310,350.736115 474.300446,369.785645 462.709564,387.527740 
	C424.490021,446.030090 371.382111,483.834717 302.515472,496.202881 
	C213.628281,512.166687 137.706100,485.728424 75.969406,419.850006 
	C52.092468,394.371277 35.369587,364.388397 24.835091,330.645752 
z"/>
<path fill="#FE1A1A" opacity="1.000000" stroke="none" 
	d="
M489.193237,183.439453 
	C487.770325,182.066742 485.975677,180.494446 484.872101,178.533264 
	C473.609863,158.519028 458.161682,142.150177 440.736176,127.480698 
	C421.477875,111.268311 399.912140,98.789490 376.819183,89.052589 
	C355.607574,80.108971 333.466309,74.052879 310.786865,70.047287 
	C285.596008,65.598160 260.112549,64.667137 234.730988,66.284622 
	C201.721603,68.388222 169.565903,75.599167 138.933075,88.307587 
	C114.081055,98.617737 91.097275,112.171570 70.537491,129.810379 
	C52.265305,145.486603 37.131046,163.563416 25.166670,184.778107 
	C28.317274,175.334915 30.853697,165.251511 35.279846,156.080109 
	C72.628281,78.690758 133.426682,30.781408 218.239899,16.510853 
	C338.321320,-3.693875 452.018402,68.734215 488.940582,182.080643 
	C489.043091,182.395386 489.076569,182.732605 489.193237,183.439453 
z"/>
<path fill="#FDFDFD" opacity="1.000000" stroke="none" 
	d="
M301.086914,213.948395 
	C317.325500,230.783646 322.601105,250.846451 316.570099,273.144135 
	C310.415253,295.899811 295.225922,310.859924 272.345917,316.790741 
	C250.472626,322.460632 230.969070,316.913513 214.172028,301.040649 
	C219.391983,295.264740 224.697800,290.127167 230.319122,285.112549 
	C252.768494,305.574341 287.503418,294.357086 294.383881,266.485474 
	C297.800140,252.646713 293.982788,240.653595 285.066742,229.667206 
	C290.458221,224.204697 295.772552,219.076538 301.086914,213.948395 
z"/>
<path fill="#D6E3E8" opacity="1.000000" stroke="none" 
	d="
M230.003601,284.989624 
	C224.697800,290.127167 219.391983,295.264740 214.017624,300.744934 
	C197.044281,284.264282 191.428696,263.956757 197.407486,241.183563 
	C203.466309,218.105484 218.796143,203.065582 241.985672,197.180817 
	C264.383545,191.496933 284.055969,197.599930 300.963501,213.634277 
	C295.772552,219.076538 290.458221,224.204697 284.766693,229.519653 
	C283.641144,229.046356 282.908142,228.367828 282.142181,227.728821 
	C260.059235,209.305908 227.639420,219.195618 219.858276,246.849854 
	C215.748810,261.454895 220.101547,274.009888 230.003601,284.989624 
z"/>
<path fill="#A7BAC0" opacity="1.000000" stroke="none" 
	d="
M322.455017,292.110107 
	C322.848297,293.148376 323.253693,294.415375 323.022522,295.552948 
	C317.786377,321.317139 294.051849,343.282562 268.116791,347.066742 
	C245.647507,350.345215 226.114365,344.283844 209.788940,328.896637 
	C199.158752,318.877380 192.267075,306.408783 190.605087,291.309174 
	C196.771744,300.283234 203.187027,309.087769 212.138748,315.817535 
	C247.718475,342.565918 297.557617,332.954376 320.584686,294.814972 
	C321.099976,293.961456 321.641357,293.123657 322.455017,292.110107 
z"/>
<path fill="#FE1A1A" opacity="1.000000" stroke="none" 
	d="
M24.633598,185.017609 
	C24.736938,185.483902 24.526346,186.043625 24.081371,186.799881 
	C24.004547,186.367950 24.162107,185.739502 24.633598,185.017609 
z"/>
<path fill="#373A3E" opacity="1.000000" stroke="none" 
	d="
M230.319122,285.112579 
	C220.101547,274.009888 215.748810,261.454895 219.858276,246.849854 
	C227.639420,219.195618 260.059235,209.305908 282.142181,227.728821 
	C282.908142,228.367828 283.641144,229.046356 284.689545,229.854034 
	C293.982788,240.653595 297.800140,252.646713 294.383881,266.485474 
	C287.503418,294.357086 252.768494,305.574341 230.319122,285.112579 
M275.701904,275.866272 
	C276.451752,274.977570 277.237091,274.116211 277.946014,273.195984 
	C286.420593,262.195465 284.915009,246.189606 274.569397,237.179367 
	C263.596436,227.622803 247.971985,228.370758 237.294601,239.271576 
	C227.734772,251.287781 228.469589,266.962921 239.039902,276.502747 
	C249.538757,285.978058 264.748810,285.815887 275.701904,275.866272 
z"/>
<path fill="#FDFDFD" opacity="1.000000" stroke="none" 
	d="
M275.064728,276.118591 
	C264.748810,285.815887 249.538757,285.978058 239.039902,276.502747 
	C228.469589,266.962921 227.734772,251.287781 237.933472,239.171265 
	C239.404480,239.595810 240.368286,239.988251 241.049042,240.665298 
	C251.771088,251.328918 262.474304,262.011688 273.118439,272.752930 
	C274.000793,273.643341 274.426727,274.986053 275.064728,276.118591 
z"/>
<path fill="#D7E4E9" opacity="1.000000" stroke="none" 
	d="
M275.383301,275.992432 
	C274.426727,274.986053 274.000793,273.643341 273.118439,272.752930 
	C262.474304,262.011688 251.771088,251.328918 241.049042,240.665298 
	C240.368286,239.988251 239.404480,239.595810 238.227325,239.003296 
	C247.971985,228.370758 263.596436,227.622803 274.569397,237.179367 
	C284.915009,246.189606 286.420593,262.195465 277.946014,273.195984 
	C277.237091,274.116211 276.451752,274.977570 275.383301,275.992432 
z"/>
</svg>